<svg xmlns="http://www.w3.org/2000/svg" width="380.302" height="333.996" viewBox="0 0 380.302 333.996">
  <g id="Group_4261" data-name="Group 4261" transform="translate(-775 -160)">
    <rect id="Rectangle_5763" data-name="Rectangle 5763" width="85.531" height="81.123" rx="6.79" transform="matrix(0.976, -0.216, 0.216, 0.976, 1031.79, 178.498)" fill="#ebebeb"/>
    <path id="Path_42711" data-name="Path 42711" d="M388.463,64.985a2.573,2.573,0,0,1-.552.162l-1.624.4-5.943,1.4L360.275,71.5h-.162l-.057-.162-1.21-3.248c-3.515-9.442-6.657-17.861-8.7-23.382l.138.081-5.358,1.145-1.429.284a3.248,3.248,0,0,1-.5.081,2.127,2.127,0,0,1,.487-.146l1.413-.349,5.334-1.258h.106l.041.106,8.866,23.366,1.21,3.248-.219-.114,20.094-4.441,6-1.283,1.624-.333Q388.2,65.029,388.463,64.985Z" transform="translate(710.476 152.688)" fill="#fafafa"/>
    <path id="Path_42712" data-name="Path 42712" d="M360.155,64.846a.329.329,0,0,0,.138-.049l.414-.114,1.624-.39,6.032-1.4,20.825-4.741-.146.195c-.162-3.645-.349-7.591-.536-11.675-.1-2.095-.187-4.157-.276-6.13l.235.179-24.584,5.448-7.307,1.567-1.973.406-.5.1h-.179l.17-.057.5-.13,1.949-.471,7.258-1.689,24.551-5.569.227-.049V40.5c.089,1.965.187,4.059.284,6.13.179,4.059.357,8.021.52,11.675v.154h-.154l-20.857,4.6-6.032,1.348-1.624.333-.422.081Z" transform="translate(708.42 153.493)" fill="#fafafa"/>
    <path id="Path_42713" data-name="Path 42713" d="M373.636,84.441a4.861,4.861,0,0,0-.309-.633,2.866,2.866,0,0,0-1.315-1.226,2.728,2.728,0,1,0-1.494,5.2,2.793,2.793,0,0,0,2.436-.917,2.946,2.946,0,0,0,.706-1.7v-.706a1.445,1.445,0,0,1,.146.714,2.866,2.866,0,0,1-.649,1.867,3.012,3.012,0,0,1-2.712,1.1,3.061,3.061,0,0,1-1.258-5.634,3.012,3.012,0,0,1,2.915-.162,2.922,2.922,0,0,1,1.388,1.413A1.446,1.446,0,0,1,373.636,84.441Z" transform="translate(705.819 145.637)" fill="#fafafa"/>
    <path id="Path_42714" data-name="Path 42714" d="M396.044,79.439a5.2,5.2,0,0,0-.309-.641,2.947,2.947,0,0,0-1.364-1.234,2.793,2.793,0,0,0-2.614.219,2.72,2.72,0,0,0,1.12,4.977,2.768,2.768,0,0,0,2.436-.917,2.906,2.906,0,0,0,.706-1.7c0-.447,0-.706,0-.706a1.388,1.388,0,0,1,.146.706,2.9,2.9,0,0,1-.649,1.875,3.055,3.055,0,1,1-1.055-4.709,2.906,2.906,0,0,1,1.388,1.421A1.438,1.438,0,0,1,396.044,79.439Z" transform="translate(701.612 146.58)" fill="#fafafa"/>
    <path id="Path_42715" data-name="Path 42715" d="M399.849,33.783a8.257,8.257,0,1,1-3.635-5.174A8.257,8.257,0,0,1,399.849,33.783Z" transform="translate(702.849 155.929)" fill="#fafafa"/>
    <path id="Path_42716" data-name="Path 42716" d="M396.531,32.59a7.519,7.519,0,0,1-.747,1.534c-.512.917-1.234,2.176-2.054,3.556l-.885,1.469-.1.154-.154-.081A25.79,25.79,0,0,1,389.07,37.1a28.5,28.5,0,0,1,3.7,1.786l-.252.073.869-1.478c.812-1.38,1.624-2.622,2.16-3.507a7.658,7.658,0,0,1,.982-1.388Z" transform="translate(701.807 154.938)" fill="#e0e0e0"/>
    <path id="Path_42717" data-name="Path 42717" d="M54.411,148.787C52.909,143.485,46,144,46,144l.187,3.694c3.986-.69,6.5,3.978,6.5,3.978Z" transform="translate(766.346 133.982)" fill="#e0e0e0"/>
    <path id="Path_42718" data-name="Path 42718" d="M180.531,72.252c8,2.436,12.99-6.8,12.99-6.8L188.65,62.68c-2.379,5.683-10.36,4.993-10.36,4.993Z" transform="translate(741.459 149.277)" fill="#e0e0e0"/>
    <path id="Path_42719" data-name="Path 42719" d="M261.107,134.6c-1.542-4.409-7.347-3.613-7.347-3.613l.349,3.118c3.337-.812,5.683,3.028,5.683,3.028Z" transform="translate(727.262 136.438)" fill="#e0e0e0"/>
    <path id="Path_42720" data-name="Path 42720" d="M148.136,7.36c-1.551-4.408-7.356-3.613-7.356-3.613l.349,3.109c3.337-.812,5.683,3.036,5.683,3.036Z" transform="translate(748.516 160.374)" fill="#e0e0e0"/>
    <path id="Path_42721" data-name="Path 42721" d="M62.8,76.87c-1.543-4.417-7.307-3.613-7.307-3.613l.349,3.11c3.337-.812,5.683,3.028,5.683,3.028Z" transform="translate(764.561 147.298)" fill="#ebebeb"/>
    <path id="Path_42722" data-name="Path 42722" d="M45.431,26.93c-4.611.763-4.871,6.617-4.871,6.617l3.126.195c-.2-3.426,3.97-5.066,3.97-5.066Z" transform="translate(767.369 156.003)" fill="#ebebeb"/>
    <path id="Path_42723" data-name="Path 42723" d="M5.139,193.7c8,2.436,12.99-6.8,12.99-6.8l-4.871-2.769c-2.379,5.683-10.368,4.993-10.368,4.993Z" transform="translate(774.456 126.43)" fill="#ebebeb"/>
    <path id="Path_42724" data-name="Path 42724" d="M285.164,73.873c.544-3.7-3.873-5.293-3.873-5.293l-.9,2.338c2.655.674,2.9,4.254,2.9,4.254Z" transform="translate(722.252 148.167)" fill="#e0e0e0"/>
    <path id="Path_42725" data-name="Path 42725" d="M253.1,25c-3.118,2.07-1.356,6.422-1.356,6.422l2.346-.893c-1.275-2.436,1.234-5,1.234-5Z" transform="translate(727.734 156.366)" fill="#ebebeb"/>
    <path id="Path_42726" data-name="Path 42726" d="M417.658,127.09l-10.8,31.8,31.931,6.341,1.835-33.579Z" transform="translate(698.46 137.16)" fill="#f5f5f5"/>
    <path id="Path_42727" data-name="Path 42727" d="M440.031,137.112a2.355,2.355,0,0,1-.365.917,9.116,9.116,0,0,1-1.624,2.135,8.7,8.7,0,0,1-3.377,2.111,9.532,9.532,0,0,1-4.871.244,9.742,9.742,0,0,1-4.457-2.005,7.754,7.754,0,0,1-2.29-3.248,8.883,8.883,0,0,1-.552-2.622,2.093,2.093,0,0,1,.081-.974,15,15,0,0,0,.861,3.434,7.786,7.786,0,0,0,2.249,3,9.467,9.467,0,0,0,4.214,1.835,9.345,9.345,0,0,0,4.6-.179,8.688,8.688,0,0,0,3.247-1.892A16.777,16.777,0,0,0,440.031,137.112Z" transform="translate(695.524 135.922)" fill="#fff"/>
    <path id="Path_42728" data-name="Path 42728" d="M371.962,409.641c0,.122-83.274.211-185.977.211S0,409.763,0,409.641s83.258-.211,185.985-.211S371.962,409.527,371.962,409.641Z" transform="translate(775 84.046)" fill="#263238"/>
    <path id="Path_42769" data-name="Path 42769" d="M126.35,247.807h2.087a2.4,2.4,0,1,1,0,4.766H126.35Zm2.046,4.019a1.624,1.624,0,0,0,0-3.248h-1.161v3.248Z" transform="translate(751.231 114.453)" fill="#fff"/>
    <path id="Path_42770" data-name="Path 42770" d="M132.849,250.112a2.574,2.574,0,1,1,2.574,2.436,2.436,2.436,0,0,1-2.574-2.436Zm4.246,0a1.681,1.681,0,1,0-1.672,1.681,1.624,1.624,0,0,0,1.672-1.681Z" transform="translate(750.008 114.527)" fill="#fff"/>
    <path id="Path_42771" data-name="Path 42771" d="M144.568,247.81v4.766h-.723l-2.63-3.247v3.247h-.885V247.81h.731l2.631,3.248V247.81Z" transform="translate(748.601 114.45)" fill="#fff"/>
    <path id="Path_42772" data-name="Path 42772" d="M150.7,251.837v.739H147.13V247.81H150.6v.739h-2.59v1.242h2.3v.731h-2.3v1.315Z" transform="translate(747.321 114.45)" fill="#fff"/>
    <path id="Path_42773" data-name="Path 42773" d="M165.213,223.377a43.814,43.814,0,1,1,43.813-43.814A43.813,43.813,0,0,1,165.213,223.377Zm0-83.106A39.292,39.292,0,1,0,204.5,179.564,39.292,39.292,0,0,0,165.213,140.271Z" transform="translate(721.927 142.919)" fill="#e8505b"/>
    <path id="Path_42774" data-name="Path 42774" d="M146.725,176.161a2.26,2.26,0,0,1-1.492-.565c-3.821-3.369-10.377-9.224-11.3-10.467a2.27,2.27,0,1,1,3.753-2.555c.611.769,4.748,4.521,8.93,8.252l22.178-21.048a2.263,2.263,0,0,1,3.12,3.278l-23.692,22.608a2.26,2.26,0,0,1-1.492.5Z" transform="translate(737.228 159.819)" fill="#e8505b"/>
    <path id="Path_42777" data-name="Path 42777" d="M419.708,225.782s9.856-5.992,12.073-4.23a14.064,14.064,0,0,1,4.27,6.828s5.2-19.85,10.173-19.1c2.85.43,1.453,2.655.179,5.44-1.185,2.59-3.207,12.081-3.207,12.081s9.41-11.171,12.178-10.968c2.143.154,2.436,2.038-.625,5.058s-8.208,12.511-8.208,12.511,6.6-6.146,9.32-6.186c2.176,0,3.58,1.486.812,3.929s-7.112,4.295-9.361,8.752c-2.8,5.448-8.768,19.022-8.768,19.022l-20.882-7.4s-3.4-13.851-3.532-17.22c0,0,.284-7.112.244-8.379s3.321-1.624,4.335.812.56,4.985.974,6.6a6.181,6.181,0,0,0,2.33,3.84c1.185.723,4.189.812,4.961-.122a12.714,12.714,0,0,0,1.9-5.1,23.117,23.117,0,0,0-.057-4.124S420.122,231.344,419.708,225.782Z" transform="translate(697.093 121.702)" fill="#ffbe9d"/>
    <path id="Path_42778" data-name="Path 42778" d="M123.568,305.09l-14.516-5.431S94.275,291,91.539,294.081a3.028,3.028,0,0,0-4.222,1.721c-.747,1.811,1.737,4.433,1.737,4.433s-.812.812.447,3.434,15.206,10.977,15.206,10.977,18.235,9.945,25.607,14.7l12.738-17.269-1.762-.666s-1.055-8.622-4.579-10.92c-3.848-2.5-8.476-9.272-9.5-11.927s-5.919-1.421-5.1,4.059,5.1,6.933,4.693,10.6S123.568,305.09,123.568,305.09Z" transform="translate(758.6 107.036)" fill="#ffbe9d"/>
    <path id="Path_42779" data-name="Path 42779" d="M101.672,310.1a58.37,58.37,0,0,1-6.316-3.3,61.186,61.186,0,0,1-6.105-3.662,58.747,58.747,0,0,1,6.292,3.3A61.951,61.951,0,0,1,101.672,310.1Z" transform="translate(758.209 104.041)" fill="#eb996e"/>
    <path id="Path_42780" data-name="Path 42780" d="M109.363,304.617a19.476,19.476,0,0,1-2.606-1.039c-1.624-.69-3.767-1.681-6.113-2.882s-4.433-2.436-5.886-3.361c-.723-.479-1.3-.877-1.681-1.177a2.841,2.841,0,0,1-.576-.487,24.359,24.359,0,0,1,2.436,1.413c1.486.877,3.564,2.038,5.91,3.248s4.5,2.233,6.057,3A17.529,17.529,0,0,1,109.363,304.617Z" transform="translate(757.598 105.447)" fill="#eb996e"/>
    <path id="Path_42781" data-name="Path 42781" d="M114.084,314.006a10.021,10.021,0,0,1-1.283-.7l-3.426-2.046h0v-.049a48.332,48.332,0,0,0-2.436-4.717,11.251,11.251,0,0,0-1.843-2.436,2.33,2.33,0,0,0-2.858-.211,1.364,1.364,0,0,0-.455.414.448.448,0,0,1,0,.1l.057.179c.041.122.081.244.13.365.171.479.365.958.552,1.429l1.112,2.712c.723,1.713,1.38,3.3,1.965,4.676v-.041l2.923,3.418.812.95c.171.219.26.341.244.357a1.666,1.666,0,0,1-.317-.292l-.812-.893-3.02-3.329h0c-.6-1.356-1.291-2.931-2.03-4.66-.365-.869-.739-1.77-1.137-2.7-.187-.471-.382-.95-.56-1.445-.049-.122-.089-.244-.13-.373l-.065-.195a1.056,1.056,0,0,1,0-.292.91.91,0,0,1,.292-.43,2.593,2.593,0,0,1,.349-.26,2.842,2.842,0,0,1,1.746-.455,2.777,2.777,0,0,1,1.624.706,11.5,11.5,0,0,1,1.916,2.557,44.1,44.1,0,0,1,2.436,4.79l-.065-.065,3.353,2.16a8.925,8.925,0,0,1,.926.779Z" transform="translate(755.906 104.054)" fill="#eb996e"/>
    <path id="Path_42782" data-name="Path 42782" d="M132.3,316.334a8.855,8.855,0,0,1-1.778-.438,17.861,17.861,0,0,0-4.295-.755,7.819,7.819,0,0,0-4.132,1.007,15.943,15.943,0,0,0-1.437,1.1,3.328,3.328,0,0,1,1.275-1.356,7.307,7.307,0,0,1,4.3-1.177,14.21,14.21,0,0,1,4.376.893,6.887,6.887,0,0,1,1.689.723Z" transform="translate(752.301 101.865)" fill="#eb996e"/>
    <path id="Path_42783" data-name="Path 42783" d="M133.294,312c.1.065-.268.7-.617,1.5s-.576,1.494-.69,1.478-.073-.812.3-1.624S133.2,311.917,133.294,312Z" transform="translate(750.181 102.376)" fill="#eb996e"/>
    <path id="Path_42784" data-name="Path 42784" d="M236.59,203.287c1-6.836,8.931-16.644,16.01-16.652a18.21,18.21,0,0,1-.146-20.013c2.72-4.059,7.1-7.063,8.931-11.577,2.1-5.1.487-10.871.69-16.367.292-8.054,4.482-15.426,8.565-22.408,3.735-6.406,8.289-13.428,15.645-15,4.652-.99,9.483.479,13.851,2.338,20.9,8.931,37.152,27.661,42.737,49.33,1.332,5.18,2.225,10.79,5.837,14.8,3.832,4.246,10.554,6.552,11.683,12.1.812,3.986-1.729,7.989-1.348,12.032.317,3.386,6.665,13.266,8.119,16.351,2.525,5.318,1.624,11.058-.958,16.359s-9.093,10.449-14.89,11.894l-64.8-21.588c-6.089,3.467-12.178,16.9-19.16,17.715s-15.539,3.873-22.27-3.5C238.076,221.375,235.584,210.131,236.59,203.287Z" transform="translate(730.532 142.078)" fill="#263238"/>
    <path id="Path_42785" data-name="Path 42785" d="M365.106,147.624c-.723,5.423.763,14.386,3.726,19.014,1.989,3.109,5.31,5.139,8.582,6.917s6.706,3.483,9.182,6.227,3.816,6.869,2.16,10.157c5.837,2.176,8.452,9.613,6.308,15.361s-8.013,9.621-14.143,10.765L354.162,208,348.3,173.9l15.426-26.3" transform="translate(709.476 133.302)" fill="#263238"/>
    <path id="Path_42786" data-name="Path 42786" d="M373,190.45a3.167,3.167,0,0,1,.52.227,15.365,15.365,0,0,1,1.461.755,19.41,19.41,0,0,1,4.685,3.905,21.109,21.109,0,0,1,4.441,8.013,19.7,19.7,0,0,1,.073,11.366l-.1-.244a19.591,19.591,0,0,1,4.344,3.3,20.191,20.191,0,0,1,5.829,11.894,19.486,19.486,0,0,1-1.908,10.749,20.143,20.143,0,0,1-4.392,5.91,16.578,16.578,0,0,1-1.551,1.258,3.7,3.7,0,0,1-.585.39,4.184,4.184,0,0,1,.528-.455,19.568,19.568,0,0,0,1.494-1.315,20.613,20.613,0,0,0,4.23-5.919,19.379,19.379,0,0,0,1.8-10.514,20.021,20.021,0,0,0-5.74-11.642,19.241,19.241,0,0,0-4.254-3.248l-.146-.081.049-.162a19.43,19.43,0,0,0,0-11.155A21.871,21.871,0,0,0,381.9,199a21.557,21.557,0,0,0-2.436-3.442,20.2,20.2,0,0,0-4.546-3.962c-.593-.4-1.1-.617-1.421-.812a2.819,2.819,0,0,1-.5-.333Z" transform="translate(704.83 125.241)" fill="#455a64"/>
    <path id="Path_42787" data-name="Path 42787" d="M249.707,234s-11.935,3.629-16.124,9.742c-2.963,4.3-33.287,69.96-33.287,69.96l-46.009-13.94L137.83,321.5l51.205,28.416a31.184,31.184,0,0,0,30.486-.138h0a31.209,31.209,0,0,0,12.292-12.714l12.99-24.941Z" transform="translate(749.07 117.048)" fill="#0076be"/>
    <path id="Path_42788" data-name="Path 42788" d="M259.949,374.218l7.185-30.973-5.44-22.489c-3.507-11.577-6.5-30.437-2.7-45.636l12.73-43.687,14-6.43,32.021-5.513c1.226.414,33.482,9.523,33.482,9.523a49.262,49.262,0,0,1,6.26,1.746l3.694,23.918L350.06,294.093l-4.871,39.279,10.636,40.846Z" transform="translate(726.609 119.778)" fill="#0076be"/>
    <path id="Path_42789" data-name="Path 42789" d="M283.312,229.427l9.28-4.157,41.852.576,9.9,5.748s-34.578,38.158-43.257,39.425C279.268,274.194,283.312,229.427,283.312,229.427Z" transform="translate(721.758 118.691)" fill="#ffbe9d"/>
    <path id="Path_42790" data-name="Path 42790" d="M376.008,233s6.268,1.413,11.642,12.876,14.062,43.371,14.062,43.371l3.71-33.815,30.259,3.329-5.854,80.806s-10.709,15.531-28.619,14.1-40.659-58.057-40.659-58.057Z" transform="translate(707.172 117.236)" fill="#0076be"/>
    <path id="Path_42791" data-name="Path 42791" d="M405.428,335.689a.7.7,0,0,1,0-.195v-.568c0-.544.081-1.275.138-2.2.114-1.908.341-4.668.658-8.078.625-6.812,1.786-16.2,3.2-26.532s2.614-19.712,3.321-26.508c.349-3.4.625-6.154.812-8.062.089-.926.162-1.624.211-2.192a3.252,3.252,0,0,1,.073-.568.749.749,0,0,1,0-.195.757.757,0,0,1,0,.195v.576c0,.536-.081,1.275-.13,2.2-.122,1.908-.349,4.668-.666,8.07-.625,6.812-1.778,16.2-3.2,26.54s-2.614,19.7-3.321,26.508c-.349,3.4-.625,6.154-.812,8.054-.089.926-.162,1.624-.211,2.192a4.1,4.1,0,0,1-.065.568A.952.952,0,0,1,405.428,335.689Z" transform="translate(698.731 112.046)" fill="#263238"/>
    <path id="Path_42792" data-name="Path 42792" d="M214.854,349.608a2.254,2.254,0,0,1-.341-.609,15.97,15.97,0,0,1-.7-1.746,26.119,26.119,0,0,1-1.185-12.243,16.923,16.923,0,0,1,.349-1.843,2.022,2.022,0,0,1,.219-.658c.065,0-.122.974-.276,2.533a30.8,30.8,0,0,0,1.177,12.121C214.554,348.666,214.919,349.576,214.854,349.608Z" transform="translate(735.048 98.516)" fill="#263238"/>
    <path id="Path_42793" data-name="Path 42793" d="M220.155,350.1a2.947,2.947,0,0,1-.536-.6c-.325-.406-.763-1.015-1.267-1.794a31.226,31.226,0,0,1-4.717-13.567,21.12,21.12,0,0,1-.122-2.192,3.3,3.3,0,0,1,0-.812c.073,0,.122,1.137.373,2.955a36.153,36.153,0,0,0,4.685,13.453C219.538,349.121,220.212,350.055,220.155,350.1Z" transform="translate(734.838 98.776)" fill="#263238"/>
    <path id="Path_42794" data-name="Path 42794" d="M263.9,265.56a3.685,3.685,0,0,1-.154.658l-.52,1.859c-.463,1.624-1.12,3.962-1.924,6.812a149.749,149.749,0,0,0-4.814,22.806,53.039,53.039,0,0,0,1.957,23.025c.812,2.858,1.624,5.139,2.225,6.714.26.755.479,1.364.633,1.811a4.972,4.972,0,0,1,.2.65,4,4,0,0,1-.284-.617c-.17-.447-.414-1.039-.706-1.786-.609-1.559-1.461-3.832-2.354-6.69a54.337,54.337,0,0,1-2.233-10.278,55.394,55.394,0,0,1,.146-12.876,139.078,139.078,0,0,1,4.936-22.8c.812-2.874,1.559-5.188,2.062-6.779l.593-1.835A3.9,3.9,0,0,1,263.9,265.56Z" transform="translate(726.912 111.111)" fill="#263238"/>
    <path id="Path_42795" data-name="Path 42795" d="M367.147,313.154s-.041-.065-.106-.195l-.284-.6c-.26-.56-.609-1.34-1.056-2.33s-1.023-2.241-1.624-3.694-1.25-3.134-1.989-4.969-1.4-3.913-2.184-6.105l-1.072-3.459c-.179-.593-.365-1.193-.552-1.8s-.325-1.25-.5-1.884a82.48,82.48,0,0,1-2.817-16.814,48.413,48.413,0,0,1,1.746-16.936,30.039,30.039,0,0,1,6.706-12.178,23.545,23.545,0,0,1,7.55-5.545,17.8,17.8,0,0,1,2.4-.885l.641-.179.219-.049a1.13,1.13,0,0,1-.2.089l-.633.219a21.151,21.151,0,0,0-2.354.958,23.821,23.821,0,0,0-7.4,5.594,30.039,30.039,0,0,0-6.552,12.048,48.462,48.462,0,0,0-1.7,16.806,83.922,83.922,0,0,0,2.825,16.773c.171.633.325,1.258.487,1.875l.544,1.8c.357,1.185.706,2.338,1.047,3.451.812,2.2,1.437,4.262,2.135,6.113l1.924,4.985c.593,1.461,1.137,2.7,1.559,3.718s.747,1.794.982,2.363l.243.617A.762.762,0,0,1,367.147,313.154Z" transform="translate(708.247 116.76)" fill="#263238"/>
    <g id="Group_4244" data-name="Group 4244" transform="translate(1061.193 393.314)" opacity="0.3">
      <path id="Path_42796" data-name="Path 42796" d="M355.213,286.06c-3.962,18.714-4.011,37.963,2.8,55.833.39,1.039,1.957,4.725,3.069,4.782,1.4.065,2.07-1.681,2.314-3.069.5-2.85.812-7.534,1.3-10.384.633-3.564,1.478-11.821,1.478-11.821s-3.248-7.485-4.709-11.5a113.936,113.936,0,0,1-6.17-23.244" transform="translate(-352.507 -286.06)"/>
    </g>
    <path id="Path_42797" data-name="Path 42797" d="M340.2,375.35a3.461,3.461,0,0,1-.317.5l-.974,1.356c-.211.292-.455.617-.706.974s-.6.7-.934,1.088a30.948,30.948,0,0,1-2.371,2.574l-1.453,1.421c-.512.5-1.1.942-1.672,1.445a48.374,48.374,0,0,1-3.881,2.939,49.963,49.963,0,0,1-20.638,8.046,46.7,46.7,0,0,1-4.871.455c-.763,0-1.5.089-2.208.073l-2.03-.057a33.837,33.837,0,0,1-3.491-.3c-.512-.057-.982-.1-1.421-.17l-1.185-.235-1.624-.341a2.722,2.722,0,0,1-.56-.146,2.774,2.774,0,0,1,.576.065l1.624.26,1.185.195c.43.065.909.089,1.421.138a34.6,34.6,0,0,0,3.467.236h2.022c.706,0,1.429-.065,2.192-.1a40.617,40.617,0,0,0,4.806-.5,55.019,55.019,0,0,0,10.676-2.866,55.721,55.721,0,0,0,9.8-5.115,47.272,47.272,0,0,0,3.881-2.89c.576-.487,1.161-.926,1.672-1.4l1.47-1.4c.958-.861,1.7-1.77,2.4-2.517.341-.382.674-.731.95-1.064s.52-.658.739-.95l1.031-1.3A2.853,2.853,0,0,1,340.2,375.35Z" transform="translate(720.471 90.457)" fill="#263238"/>
    <path id="Path_42798" data-name="Path 42798" d="M340.937,360.1a3.249,3.249,0,0,1-.106.885,19.666,19.666,0,0,1-.568,2.371,28.185,28.185,0,0,1-3.361,7.307,27.9,27.9,0,0,1-5.277,6.048A20.824,20.824,0,0,1,329.7,378.2a3.6,3.6,0,0,1-.771.463c-.041-.065,1-.812,2.5-2.168a31.183,31.183,0,0,0,8.549-13.226C340.621,361.334,340.864,360.084,340.937,360.1Z" transform="translate(713.121 93.326)" fill="#263238"/>
    <path id="Path_42799" data-name="Path 42799" d="M325.527,95a32.889,32.889,0,0,1,28.6,48.713c-1.867,3.386-4.538,6.592-8.216,7.77A67.792,67.792,0,0,0,325.34,98.824" transform="translate(713.796 143.197)" fill="#f4136b"/>
    <path id="Path_42800" data-name="Path 42800" d="M341.751,94.2c-1.681-3.5.122-7.875,3.118-10.335s6.909-3.459,10.684-4.36,7.688-1.835,10.749-4.214c-.438,6.081-1.948,12.332-5.886,16.993s-10.757,7.25-16.376,4.871" transform="translate(710.83 146.905)" fill="#f4136b"/>
    <path id="Path_42801" data-name="Path 42801" d="M342.785,97.2a8.566,8.566,0,0,1-7.973-1.177,18.259,18.259,0,0,1-5.326-6.414,27.653,27.653,0,0,1-3.418-9.678,16.238,16.238,0,0,1,1.713-10.01c4.441,4.733,9.337,8.711,11.878,14.687a17.718,17.718,0,0,1-.284,12.608" transform="translate(713.693 147.915)" fill="#f4136b"/>
    <path id="Path_42802" data-name="Path 42802" d="M360.681,127.77a6.136,6.136,0,0,1,.219,1.129c.065.365.13.812.171,1.34s.114,1.12.13,1.778a36.916,36.916,0,0,1-.081,4.66,40.378,40.378,0,0,1-.9,5.634,39.2,39.2,0,0,1-1.737,5.431,35.283,35.283,0,0,1-2.022,4.2c-.309.585-.641,1.088-.917,1.534s-.536.812-.755,1.12a5.9,5.9,0,0,1-.706.909,5.8,5.8,0,0,1,.568-1c.195-.317.438-.7.69-1.153s.568-.966.861-1.559a44.05,44.05,0,0,0,1.924-4.189,40.276,40.276,0,0,0,2.606-10.96,41.478,41.478,0,0,0,.171-4.62c0-.658-.049-1.25-.065-1.77s-.065-.974-.1-1.34A5.531,5.531,0,0,1,360.681,127.77Z" transform="translate(708.39 137.032)" fill="#263238"/>
    <path id="Path_42803" data-name="Path 42803" d="M355.638,97.954a7.306,7.306,0,0,1-.9.714,9.808,9.808,0,0,1-2.931,1.137,22.863,22.863,0,0,1-10.368-.593h-.122v-.122c-.057-.244-.114-.5-.171-.763a18.084,18.084,0,0,1-.268-6.04,10.3,10.3,0,0,1,1.7-4.636,8.647,8.647,0,0,1,2.436-2.3,7.694,7.694,0,0,1,1.1-.544,7.03,7.03,0,0,1-1,.682,9.109,9.109,0,0,0-2.257,2.33,10.336,10.336,0,0,0-1.624,4.449,18.414,18.414,0,0,0,.3,5.9c.057.26.114.511.162.755l-.146-.154a23.8,23.8,0,0,0,10.189.706,10.734,10.734,0,0,0,2.915-.982A5.514,5.514,0,0,1,355.638,97.954Z" transform="translate(710.899 145.114)" fill="#263238"/>
    <path id="Path_42804" data-name="Path 42804" d="M359.139,88c0,.073-1.185.244-3.045.812a26.133,26.133,0,0,0-3.191,1.177,28.9,28.9,0,0,0-3.654,2A29.628,29.628,0,0,0,346,94.493a27.721,27.721,0,0,0-2.354,2.436c-1.25,1.486-1.875,2.517-1.948,2.436a3.5,3.5,0,0,1,.4-.755,17.183,17.183,0,0,1,1.323-1.916,22.431,22.431,0,0,1,2.322-2.549,25.985,25.985,0,0,1,3.321-2.622,27.126,27.126,0,0,1,3.686-1.9A23.245,23.245,0,0,1,356,88.51a17.868,17.868,0,0,1,2.281-.447A3.02,3.02,0,0,1,359.139,88Z" transform="translate(710.719 144.516)" fill="#263238"/>
    <path id="Path_42805" data-name="Path 42805" d="M344.062,101.869v.244a3.08,3.08,0,0,1-.219.666,5.252,5.252,0,0,1-1.624,2.03,5.57,5.57,0,0,1-3.653,1.185,5.5,5.5,0,0,1-4.774-6.974,5.61,5.61,0,0,1,2.436-2.98,5.309,5.309,0,0,1,2.436-.763,4,4,0,0,1,.706,0,.746.746,0,0,1,.235.057,8.755,8.755,0,0,1-.925.065,5.553,5.553,0,0,0-2.322.9,5.334,5.334,0,0,0-2.2,2.842,5.164,5.164,0,0,0,4.425,6.5,5.456,5.456,0,0,0,3.45-1.031,5.569,5.569,0,0,0,1.624-1.859C343.941,102.185,344.022,101.853,344.062,101.869Z" transform="translate(712.246 143.148)" fill="#263238"/>
    <path id="Path_42806" data-name="Path 42806" d="M334.344,103.186c-.041,0-.284-.447.1-1.08a1.884,1.884,0,0,1,.966-.747,3.451,3.451,0,0,1,1.453-.154,6.731,6.731,0,0,1,3.442,1.023c-.049.122-1.543-.471-3.475-.6a2.33,2.33,0,0,0-2.135.649A2.078,2.078,0,0,0,334.344,103.186Z" transform="translate(712.124 142.034)" fill="#263238"/>
    <path id="Path_42807" data-name="Path 42807" d="M327.8,69.92a10.279,10.279,0,0,0-1.242,3.475,23.554,23.554,0,0,0-.187,4.059,25.819,25.819,0,0,0,.43,4.92,24.435,24.435,0,0,0,3.467,8.216c.658.942,1.242,1.681,1.624,2.176a9.663,9.663,0,0,1,.641.763,11.422,11.422,0,0,1-2.476-2.8,22.732,22.732,0,0,1-3.637-8.305,24.266,24.266,0,0,1-.406-5,21.92,21.92,0,0,1,.284-4.059,8.3,8.3,0,0,1,.926-2.614,2.874,2.874,0,0,1,.576-.828Z" transform="translate(713.67 147.915)" fill="#263238"/>
    <path id="Path_42808" data-name="Path 42808" d="M333.4,81.78a6.852,6.852,0,0,1,1.145,1.388,24.147,24.147,0,0,1,2.151,3.767,22.444,22.444,0,0,1,1.429,4.059,5.787,5.787,0,0,1,.276,1.778c-.13,0-.682-2.655-2.086-5.683S333.285,81.861,333.4,81.78Z" transform="translate(712.281 145.684)" fill="#263238"/>
    <path id="Path_42809" data-name="Path 42809" d="M331.71,88c.089-.065,1.453,1.315,3.247,2.923a25.175,25.175,0,0,1,3.126,3.045,21.224,21.224,0,0,1-3.418-2.72A14.557,14.557,0,0,1,331.71,88Z" transform="translate(712.598 144.515)" fill="#263238"/>
    <path id="Path_42810" data-name="Path 42810" d="M354.422,111.48l-.114.114-.357.3a15.416,15.416,0,0,1-1.388,1.031,20.834,20.834,0,0,1-5.115,2.492,20.6,20.6,0,0,1-5.594,1.023,14.618,14.618,0,0,1-1.721,0h0c.406,0,.99,0,1.713-.049a22.579,22.579,0,0,0,5.553-1.055,22.888,22.888,0,0,0,5.1-2.436c.609-.4,1.088-.739,1.413-.982.13-.1.252-.195.373-.276A.329.329,0,0,0,354.422,111.48Z" transform="translate(711.133 140.097)" fill="#fafafa"/>
    <path id="Path_42811" data-name="Path 42811" d="M360.325,123.58l-.114.114-.365.3c-.309.26-.812.617-1.388,1.023a23.863,23.863,0,0,1-5.082,2.574,23.488,23.488,0,0,1-5.561,1.258c-.723.073-1.315.106-1.721.106h-.633a.446.446,0,0,1,.162,0h.471c.406,0,.99-.073,1.713-.154a25.461,25.461,0,0,0,5.513-1.307,25.835,25.835,0,0,0,5.074-2.509c.609-.4,1.088-.731,1.413-.982l.382-.268C360.277,123.6,360.325,123.572,360.325,123.58Z" transform="translate(710.011 137.821)" fill="#fafafa"/>
    <path id="Path_42812" data-name="Path 42812" d="M359.751,141.23a3.339,3.339,0,0,1-.349.252,10.55,10.55,0,0,1-1,.6,15.986,15.986,0,0,1-7.372,1.932h-1.169a1.716,1.716,0,0,1-.422-.057,2.577,2.577,0,0,1,.43,0h1.153a17.993,17.993,0,0,0,3.767-.568,17.554,17.554,0,0,0,3.556-1.348c.438-.219.812-.414,1.023-.552a2.439,2.439,0,0,1,.382-.26Z" transform="translate(709.262 134.5)" fill="#fafafa"/>
    <path id="Path_42813" data-name="Path 42813" d="M365.015,138.53a3.8,3.8,0,0,1-1.1.3,4.3,4.3,0,0,1-1.128.13,3.8,3.8,0,0,1,1.1-.3A3.922,3.922,0,0,1,365.015,138.53Z" transform="translate(706.751 135.009)" fill="#fafafa"/>
    <path id="Path_42814" data-name="Path 42814" d="M354.758,159.224a5.683,5.683,0,0,1-1.859.089,5.366,5.366,0,0,1-1.819-.365c0-.049.812.122,1.835.195S354.75,159.167,354.758,159.224Z" transform="translate(708.954 131.169)" fill="#fafafa"/>
    <path id="Path_42815" data-name="Path 42815" d="M336.109,107a4.808,4.808,0,0,1-1.08.7,5.008,5.008,0,0,1-1.169.544,5.158,5.158,0,0,1,1.08-.7,5.01,5.01,0,0,1,1.169-.544Z" transform="translate(712.193 140.94)" fill="#fafafa"/>
    <path id="Path_42816" data-name="Path 42816" d="M330.633,96.5a14.662,14.662,0,0,0-2.436,1.283,15.43,15.43,0,0,0-2,1.835,2.658,2.658,0,0,1,.463-.658,8.412,8.412,0,0,1,1.437-1.315,8.118,8.118,0,0,1,1.721-.926A2.436,2.436,0,0,1,330.633,96.5Z" transform="translate(713.635 142.915)" fill="#fafafa"/>
    <path id="Path_42817" data-name="Path 42817" d="M340.525,107.006a11.074,11.074,0,0,0,.041-2.436,10.786,10.786,0,0,0-.666-2.371,2.377,2.377,0,0,1,.365.641,6.2,6.2,0,0,1,.471,1.7,6.323,6.323,0,0,1,0,1.778A2.291,2.291,0,0,1,340.525,107.006Z" transform="translate(711.057 141.843)" fill="#fafafa"/>
    <path id="Path_42818" data-name="Path 42818" d="M366.1,75.51a9.918,9.918,0,0,1-.885.942,18.488,18.488,0,0,1-2.809,2.168,35.72,35.72,0,0,1-4.668,2.436c-1.81.812-3.84,1.624-5.886,2.574a23.245,23.245,0,0,0-5.391,3.434,13.64,13.64,0,0,0-3.158,4.116,10.036,10.036,0,0,0-.966,3.369,6.029,6.029,0,0,0,0,1.3v-.333a6.256,6.256,0,0,1,0-.966,9.526,9.526,0,0,1,.926-3.418,13.4,13.4,0,0,1,3.166-4.181,22.545,22.545,0,0,1,5.375-3.491c2.054-.99,4.059-1.778,5.894-2.574a36.974,36.974,0,0,0,4.66-2.371,19.78,19.78,0,0,0,2.825-2.1c.309-.284.544-.511.69-.674A2.233,2.233,0,0,1,366.1,75.51Z" transform="translate(710.606 146.864)" fill="#fafafa"/>
    <path id="Path_42819" data-name="Path 42819" d="M365.136,87.38a1.5,1.5,0,0,1-.114.179l-.333.511c-.292.447-.747,1.064-1.348,1.8A32.069,32.069,0,0,1,351.716,98.9c-.869.39-1.583.682-2.078.852l-.576.2a.933.933,0,0,1-.211.057l.195-.089.568-.227c.5-.195,1.194-.5,2.054-.9a33.961,33.961,0,0,0,11.585-9c.6-.731,1.072-1.34,1.38-1.77l.365-.487C365.079,87.429,365.128,87.372,365.136,87.38Z" transform="translate(709.373 144.631)" fill="#fafafa"/>
    <path id="Path_42820" data-name="Path 42820" d="M327.17,73.32a15.429,15.429,0,0,1,2.436,1.307,20.791,20.791,0,0,1,4.977,4.5A20.386,20.386,0,0,1,337.83,85a15,15,0,0,1,.706,2.687.987.987,0,0,1-.057-.179c-.049-.17-.1-.341-.146-.536a18.138,18.138,0,0,0-.617-1.932,21.174,21.174,0,0,0-8.167-10.319,19.054,19.054,0,0,0-1.7-1.039l-.487-.26C327.219,73.361,327.162,73.328,327.17,73.32Z" transform="translate(713.452 147.276)" fill="#fafafa"/>
    <path id="Path_42821" data-name="Path 42821" d="M274.181,110.93c.317,4.3-2.525,8.119-5.391,11.366s-6.049,6.592-6.665,10.863c-1.1,7.567,6.308,14.614,4.782,22.083-.812,4.019-4.108,7.242-4.693,11.3-.568,3.921,1.534,7.762,4.141,10.749s5.626,2.549,7.932,5.772a32.289,32.289,0,0,0,10,8.931c8.3,4.547,18.267-2.03,22.27-3.248" transform="translate(725.71 140.2)" fill="#263238"/>
    <path id="Path_42822" data-name="Path 42822" d="M339.778,123.821c3.832-1.664,4.132-15.426-5.472-16.968-3.856-.633-7.063-2.517-10.3-4.693-2.866-1.932-3.718-6.828-6.146-9.288A24.032,24.032,0,0,0,277.442,103.9c-1.4,5.553-.438,12.129,3.938,15.824,5.082,4.287,12.625,3.329,19.136,2s13.891-2.647,19.331,1.177c3.247,2.306,5.164,6.065,7.169,9.531s4.522,7.023,8.314,8.33c0,0,2.89,6.787.528,11.5s2.777-3.329,2.777-3.329,9.345-16.627,1.145-25.111" transform="translate(722.919 144.943)" fill="#263238"/>
    <path id="Path_42823" data-name="Path 42823" d="M290.266,224.491c-.057-8.931,0-34.1,0-34.058s-14.224-2.4-17.139-20.963c-1.445-9.239-.942-24.356-.138-36.754.731-11.139,8.119-24.787,19.233-23.544l34.635,8.776a6.5,6.5,0,0,1,5.829,6.641h0l-2.1,86.059Z" transform="translate(723.791 140.546)" fill="#ffbe9d"/>
    <path id="Path_42824" data-name="Path 42824" d="M280.43,150.762a2.387,2.387,0,0,0,2.289,2.436,2.273,2.273,0,0,0,2.436-2.143,2.379,2.379,0,0,0-2.289-2.436,2.281,2.281,0,0,0-2.436,2.143Z" transform="translate(722.245 133.111)" fill="#263238"/>
    <path id="Path_42825" data-name="Path 42825" d="M277.181,147.322c.3.309,2.1-1.023,4.668-1.007s4.433,1.3,4.717.982c.138-.138-.162-.7-.982-1.291a6.5,6.5,0,0,0-3.775-1.177,6.284,6.284,0,0,0-3.71,1.193C277.311,146.592,277.026,147.184,277.181,147.322Z" transform="translate(722.864 133.823)" fill="#263238"/>
    <path id="Path_42826" data-name="Path 42826" d="M308.208,152.352c.292.308,2.1-1.023,4.66-1.007s4.441,1.3,4.717.982c.138-.138-.162-.7-.982-1.3a6.568,6.568,0,0,0-3.775-1.169,6.284,6.284,0,0,0-3.71,1.193C308.33,151.654,308.03,152.214,308.208,152.352Z" transform="translate(717.028 132.877)" fill="#263238"/>
    <path id="Path_42827" data-name="Path 42827" d="M295.206,167c0-.146-1.583-.422-4.157-.763-.658-.065-1.275-.195-1.388-.641a3.354,3.354,0,0,1,.447-1.94q.926-2.371,1.94-4.977c2.7-7.088,4.66-12.917,4.376-12.99s-2.712,5.553-5.407,12.641c-.658,1.746-1.275,3.41-1.867,5a3.791,3.791,0,0,0-.349,2.574,1.624,1.624,0,0,0,1.08.958,4.173,4.173,0,0,0,1.1.154C293.582,167.132,295.2,167.148,295.206,167Z" transform="translate(720.686 133.661)" fill="#263238"/>
    <path id="Path_42828" data-name="Path 42828" d="M294.45,207.756a47.2,47.2,0,0,0,24.876-6.576c-.2,0-6.844,12.909-24.641,10.96Z" transform="translate(719.608 123.222)" fill="#eb996e"/>
    <path id="Path_42829" data-name="Path 42829" d="M297.612,180.05c-.308-1.575,1.551-2.087,2.915-2.939s2.143-1.973,3.426-1a4.953,4.953,0,0,1,1.575,2.208,3.427,3.427,0,0,1,.26,1.819,3.54,3.54,0,0,1-1.145,1.892,5.358,5.358,0,0,1-2.777,1.453,3.856,3.856,0,0,1-3.012-.706,3.028,3.028,0,0,1-1.153-2.809" transform="translate(719.019 128.009)" fill="#eb996e"/>
    <path id="Path_42830" data-name="Path 42830" d="M304.105,174.14c-.414,0-.422,2.76-2.809,4.725s-5.342,1.624-5.367,2.046c-.041.179.658.544,1.908.576a6.917,6.917,0,0,0,4.482-1.543,6.041,6.041,0,0,0,2.176-3.962C304.6,174.838,304.292,174.124,304.105,174.14Z" transform="translate(719.329 128.309)" fill="#263238"/>
    <path id="Path_42831" data-name="Path 42831" d="M307.747,145.438c.252.7,2.809.373,5.813.739s5.44,1.193,5.837.576c.179-.3-.244-.958-1.226-1.624a9.62,9.62,0,0,0-4.319-1.526,9.8,9.8,0,0,0-4.555.52C308.193,144.561,307.633,145.1,307.747,145.438Z" transform="translate(717.109 134.068)" fill="#263238"/>
    <path id="Path_42832" data-name="Path 42832" d="M277.615,136.4c.455.585,2.216,0,4.344,0s3.913.406,4.335-.2c.179-.3-.106-.877-.885-1.437a6.3,6.3,0,0,0-6.99.2C277.664,135.5,277.42,136.1,277.615,136.4Z" transform="translate(722.786 135.899)" fill="#263238"/>
    <path id="Path_42833" data-name="Path 42833" d="M338.36,179.155c-5.107,1.031-5.561-1.567-9.377-5.115a16.79,16.79,0,0,1-5.131-14.151c.576-4.555,3.036-9.2,1.461-13.51-2.095-5.683-10.092-7.461-12.219-13.161-1.234-3.3-.122-7.177-1.518-10.425-1.315-3.045-4.53-4.806-7.648-5.935s-6.5-1.908-9.1-3.946-4.254-5.886-2.566-8.744a175.8,175.8,0,0,1,40.594,9.856c3.028,1.137,6.211,2.493,8.005,5.188,1.892,2.85,1.8,6.5,1.624,9.946q-1.153,25.014-2.33,50.02" transform="translate(720.148 141.472)" fill="#263238"/>
    <path id="Path_42834" data-name="Path 42834" d="M350.254,171.463a2.029,2.029,0,0,0,.2-.227,7.863,7.863,0,0,0,.512-.747,9.937,9.937,0,0,0,1.218-3.248,11.461,11.461,0,0,0-.292-5.488,10.554,10.554,0,0,0-4.327-5.813c-2.2-1.551-5.066-2.63-6.893-5.107a5.57,5.57,0,0,1-1.007-4.36,24.88,24.88,0,0,1,1.624-4.814,13.8,13.8,0,0,0-.235-11.082,12.178,12.178,0,0,0-3.767-4.685,14.7,14.7,0,0,0-5.683-2.363c-2.013-.455-4.019-.723-5.878-1.283a11.472,11.472,0,0,1-4.92-2.7,8.168,8.168,0,0,1-2.135-4.871,41.341,41.341,0,0,0-.877-5.4,18.673,18.673,0,0,0-5.009-8.785,14.776,14.776,0,0,0-7.891-3.913,11.724,11.724,0,0,0-7.234,1.12,11.277,11.277,0,0,0-4.149,3.6,9.6,9.6,0,0,0-1.453,3.15,4.709,4.709,0,0,0-.179,1.193,11.634,11.634,0,0,1,1.892-4.157,11.156,11.156,0,0,1,4.059-3.377,11.366,11.366,0,0,1,6.885-.926,14.151,14.151,0,0,1,7.51,3.832,17.974,17.974,0,0,1,4.749,8.484,42.464,42.464,0,0,1,.812,5.326,8.93,8.93,0,0,0,2.338,5.318,12.178,12.178,0,0,0,5.253,2.915c1.957.585,3.962.852,5.935,1.3a13.9,13.9,0,0,1,5.391,2.225,11.253,11.253,0,0,1,3.523,4.36,13.1,13.1,0,0,1,.268,10.481,24.767,24.767,0,0,0-1.624,4.977,6.268,6.268,0,0,0,1.169,4.871c2.022,2.671,4.977,3.7,7.112,5.188a10.051,10.051,0,0,1,4.214,5.472,11.277,11.277,0,0,1,.422,5.293,12.423,12.423,0,0,1-1.535,4.238Z" transform="translate(720.09 142.929)" fill="#455a64"/>
    <path id="Path_42835" data-name="Path 42835" d="M331.554,166.13a46.943,46.943,0,0,0-2.168,30.965c.812,3.036,2,6.187,1.283,9.255-.812,3.321-3.556,5.724-5.586,8.468a20.914,20.914,0,0,0,6.414,30.551c.536-3.053,3.377-5.131,6.178-6.5s5.894-2.314,8.03-4.555,2.744-6.365.26-8.224c7.145-1.867,11.2-10.36,9.694-17.585s-7.388-12.99-14.078-16.083" transform="translate(714.613 129.816)" fill="#263238"/>
    <path id="Path_42836" data-name="Path 42836" d="M339.19,250.968c-1.283.706-2.517,1.331-2.679,2.777-.187,1.7,1.445,4.693,2.03,6.292a8.744,8.744,0,0,1-11.423,11.131c2.289.17,4.23-2.062,4.433-4.344s-.909-4.49-2.273-6.341a63.849,63.849,0,0,1-4.165-5.464c-2.354-4.059-5.854-15-3.158-21.15" transform="translate(714.616 117.073)" fill="#263238"/>
    <path id="Path_42837" data-name="Path 42837" d="M350.536,229.305a3.048,3.048,0,0,1,.438-.374c.3-.227.731-.568,1.275-1.031a28.217,28.217,0,0,0,4.173-4.311,21.54,21.54,0,0,0,3.954-7.891,17.748,17.748,0,0,0-.52-10.66,15.847,15.847,0,0,0-2.939-4.749c-1.193-1.372-2.492-2.566-3.718-3.735a36.621,36.621,0,0,1-3.329-3.467,14.774,14.774,0,0,1-2.184-3.589,9.483,9.483,0,0,1-.731-5.967,6.263,6.263,0,0,1,.6-1.543,2.436,2.436,0,0,1,.317-.479,10.78,10.78,0,0,0-.763,2.054,9.556,9.556,0,0,0,.812,5.813,14.769,14.769,0,0,0,2.176,3.491,39.385,39.385,0,0,0,3.329,3.4c1.226,1.153,2.541,2.354,3.767,3.751a16.044,16.044,0,0,1,3.012,4.871,18.007,18.007,0,0,1,.511,10.912,21.539,21.539,0,0,1-4.1,7.973,25.888,25.888,0,0,1-4.3,4.262c-.56.438-1.015.763-1.331.974a2.9,2.9,0,0,1-.447.292Z" transform="translate(709.765 126.923)" fill="#455a64"/>
    <path id="Path_42838" data-name="Path 42838" d="M216.715,160.167c-1.494-5.3-8.395-4.79-8.395-4.79l.195,3.694c3.986-.69,6.495,3.978,6.495,3.978Z" transform="translate(735.81 131.841)" fill="#e8505b"/>
    <path id="Path_42839" data-name="Path 42839" d="M134.145,85.27c-3.718.4-4.165,5.066-4.165,5.066l2.492.3c0-2.752,3.4-3.873,3.4-3.873Z" transform="translate(750.547 145.028)" fill="#e8505b"/>
    <path id="Path_42840" data-name="Path 42840" d="M177.79,23.5c2.273,5.789,9.954,4.441,9.954,4.441l-.625-4.116c-4.392,1.218-7.7-3.751-7.7-3.751Z" transform="translate(741.554 157.293)" fill="#e8505b"/>
    <path id="Path_42841" data-name="Path 42841" d="M70.195,144.66c-3.727.39-4.165,5.066-4.165,5.066l2.484.292c0-2.744,3.41-3.865,3.41-3.865Z" transform="translate(762.578 133.855)" fill="#e8505b"/>
    <path id="Path_42842" data-name="Path 42842" d="M88.942,45.833c.536-3.7-3.881-5.293-3.881-5.293l-.9,2.338c2.663.682,2.9,4.262,2.9,4.262Z" transform="translate(759.167 153.442)" fill="#e8505b"/>
    <path id="Path_42843" data-name="Path 42843" d="M11.67,116.5c-.674,5.8,7.023,7.21,7.023,7.21l1.356-3.8c-4.62-.414-5.285-5.854-5.285-5.854Z" transform="translate(772.812 139.612)" fill="#e8505b"/>
    <path id="Path_42844" data-name="Path 42844" d="M236.506,81.4c3.735.211,4.936-4.327,4.936-4.327l-2.436-.7c-.438,2.712-3.986,3.248-3.986,3.248Z" transform="translate(730.788 146.702)" fill="#e8505b"/>
  </g>
</svg>
